<svg width="40" height="40" viewBox="0 0 40 40" fill="none" xmlns="http://www.w3.org/2000/svg">
<path d="M9.33333 29.3333C9.07042 29.3342 8.80997 29.2827 8.56711 29.182C8.32425 29.0813 8.10384 28.9333 7.91867 28.7467L0.586 21.414C0.208667 21.038 0 20.5353 0 20C0 19.4647 0.208667 18.962 0.586667 18.5853L7.91933 11.2527C8.10446 11.0662 8.32479 10.9184 8.56753 10.8178C8.81027 10.7172 9.07058 10.6658 9.33333 10.6667C10.436 10.6667 11.3333 11.564 11.3333 12.6667C11.3333 13.202 11.1247 13.7047 10.7467 14.0813L4.828 20L10.7473 25.9193C11.1253 26.2953 11.3333 26.798 11.3333 27.3333C11.3333 28.436 10.436 29.3333 9.33333 29.3333ZM30.6667 30C29.564 30 28.6667 29.1027 28.6667 28C28.6667 27.4647 28.8753 26.962 29.2533 26.5853L35.172 20.6667L29.2527 14.7473C29.0664 14.5621 28.9187 14.3417 28.8181 14.099C28.7175 13.8563 28.6661 13.5961 28.6667 13.3333C28.6667 12.2307 29.564 11.3333 30.6667 11.3333C31.202 11.3333 31.7047 11.542 32.0813 11.92L39.414 19.2527C39.792 19.63 40 20.1327 40 20.6667C40 21.202 39.7913 21.7047 39.4133 22.0813L32.0807 29.414C31.8956 29.6006 31.6753 29.7485 31.4326 29.8491C31.1898 29.9497 30.9294 30.001 30.6667 30ZM14 35.3333C13.6708 35.3328 13.3469 35.2512 13.0568 35.0956C12.7667 34.9401 12.5194 34.7154 12.3368 34.4415C12.1543 34.1677 12.042 33.853 12.01 33.5254C11.978 33.1978 12.0272 32.8674 12.1533 32.5633L24.154 5.89533C24.306 5.53112 24.5624 5.22006 24.8909 5.0014C25.2194 4.78273 25.6054 4.66626 26 4.66667C26.3292 4.66719 26.6531 4.74883 26.9432 4.90438C27.2333 5.05992 27.4806 5.28457 27.6632 5.55845C27.8457 5.83233 27.958 6.14699 27.99 6.47459C28.022 6.80219 27.9728 7.13263 27.8467 7.43667L15.846 34.1047C15.694 34.4689 15.4376 34.7799 15.1091 34.9986C14.7806 35.2173 14.3946 35.3337 14 35.3333Z" fill="url(#paint0_linear_1_4)"/>
<defs>
<linearGradient id="paint0_linear_1_4" x1="20" y1="4.66666" x2="20" y2="35.3333" gradientUnits="userSpaceOnUse">
<stop stop-color="#FFF700"/>
<stop offset="0.985577" stop-color="#DE0707"/>
</linearGradient>
</defs>
</svg>
