<svg xmlns="http://www.w3.org/2000/svg" version="1.1" xmlns:xlink="http://www.w3.org/1999/xlink" width="512" height="512" x="0" y="0" viewBox="0 0 100 100" style="enable-background:new 0 0 512 512" xml:space="preserve" class=""><g><path d="M11.4 93.3h-.2c-1.3-.1-2.2-1.2-2.1-2.4 1.3-19.1 19.3-34 40.9-34s39.6 14.9 40.9 33.9c.1 1.3-.9 2.3-2.1 2.4-1.3.1-2.3-.9-2.4-2.1C85.2 74.4 69.2 61.4 50 61.4c-19.3 0-35.3 13.1-36.4 29.8-.1 1.2-1.1 2.1-2.2 2.1zM50 52.3c-12.6 0-22.8-10.2-22.8-22.8S37.4 6.7 50 6.7s22.8 10.2 22.8 22.8S62.6 52.3 50 52.3zm0-41c-10 0-18.2 8.2-18.2 18.2S40 47.7 50 47.7s18.2-8.2 18.2-18.2S60 11.3 50 11.3z" fill="#000000" opacity="1" data-original="#000000" class=""></path></g></svg>